<svg xmlns="http://www.w3.org/2000/svg" width="29.15" height="40" viewBox="0 0 29.15 40">
  <g id="Group_1458" data-name="Group 1458" transform="translate(-238 -487)">
    <path id="Subtraction_1" data-name="Subtraction 1" d="M-2367.829,69H-2377a3.043,3.043,0,0,1-3-3.077V32.077A3.043,3.043,0,0,1-2377,29h16a3.043,3.043,0,0,1,3,3.077V51h-2V36.179h-18V61.82h10v2.052h-10v2.051a1.014,1.014,0,0,0,1,1.025h9V68a3,3,0,0,0,.17,1ZM-2377,31.051a1.014,1.014,0,0,0-1,1.026v2.051h18V32.077a1.014,1.014,0,0,0-1-1.026Z" transform="translate(2618 458)" fill="#fff"/>
    <g id="__TEMP__SVG__" transform="translate(253 511.827)">
      <path id="Path_181" data-name="Path 181" d="M7.163,1.084a.436.436,0,0,0-.326,0l-5.222,2.1L7,5.346l5.385-2.164Zm5.962,2.749L7.438,6.118v6.965L13.125,10.8V3.833ZM6.563,13.084V6.117L.875,3.832V10.8ZM6.513.267a1.307,1.307,0,0,1,.975,0l6.238,2.508A.44.44,0,0,1,14,3.182V10.8a.879.879,0,0,1-.55.816L7.163,14.141a.436.436,0,0,1-.326,0L.551,11.614A.879.879,0,0,1,0,10.8V3.182a.44.44,0,0,1,.275-.408Z" transform="translate(0 0)" fill="#fff" stroke="#fff" stroke-width="0.3" fill-rule="evenodd"/>
    </g>
  </g>
</svg>
